<svg xmlns="http://www.w3.org/2000/svg" viewBox="0 0 900 1125" role="img" aria-labelledby="title desc">
  <title id="title">Amber Woods Candle</title>
  <desc id="desc">A warm amber candle product image placeholder.</desc>
  <defs>
    <linearGradient id="bg" x1="0" x2="1" y1="0" y2="1">
      <stop offset="0" stop-color="#f3dfc1"/>
      <stop offset="0.5" stop-color="#d19154"/>
      <stop offset="1" stop-color="#593927"/>
    </linearGradient>
    <linearGradient id="glass" x1="0" x2="1" y1="0" y2="1">
      <stop offset="0" stop-color="#fff7ec" stop-opacity="0.85"/>
      <stop offset="0.4" stop-color="#c06a33" stop-opacity="0.74"/>
      <stop offset="1" stop-color="#3b2318" stop-opacity="0.9"/>
    </linearGradient>
    <filter id="shadow" x="-20%" y="-20%" width="140%" height="140%">
      <feDropShadow dx="0" dy="28" stdDeviation="34" flood-color="#23140d" flood-opacity="0.35"/>
    </filter>
  </defs>
  <rect width="900" height="1125" fill="url(#bg)"/>
  <circle cx="710" cy="160" r="150" fill="#ffe0a3" opacity="0.28"/>
  <circle cx="175" cy="905" r="210" fill="#fff5df" opacity="0.18"/>
  <g filter="url(#shadow)">
    <ellipse cx="450" cy="349" rx="205" ry="64" fill="#f7d7a7"/>
    <path d="M245 350h410l-54 515c-7 66-62 116-129 116h-44c-67 0-122-50-129-116z" fill="url(#glass)"/>
    <ellipse cx="450" cy="350" rx="205" ry="64" fill="#f9d99d"/>
    <ellipse cx="450" cy="350" rx="148" ry="38" fill="#ffe7bb"/>
    <path d="M450 310c20 38 44 70 44 100 0 31-20 54-44 54s-44-23-44-54c0-30 24-62 44-100z" fill="#ffb23f"/>
    <path d="M450 331c10 24 21 42 21 61 0 17-9 29-21 29s-21-12-21-29c0-19 11-37 21-61z" fill="#fff1a8"/>
    <rect x="336" y="594" width="228" height="146" rx="10" fill="#fff4e3" opacity="0.9"/>
    <text x="450" y="650" text-anchor="middle" font-family="Arial, sans-serif" font-size="34" font-weight="700" fill="#4a2d1f">AMBER</text>
    <text x="450" y="693" text-anchor="middle" font-family="Arial, sans-serif" font-size="30" font-weight="700" fill="#4a2d1f">WOODS</text>
    <text x="450" y="727" text-anchor="middle" font-family="Arial, sans-serif" font-size="17" fill="#7a5641">SOY CANDLE</text>
  </g>
</svg>
